# xmcd CD database file
#
# Track frame offsets:
#	150
#	21233
#	38736
#	59962
#	81940
#	96021
#	111297
#	134786
#	153302
#	167859
#	189628
#	204651
#	224635
#	237489
#	257228
#	270465
#	283169
#	309232
#	335620
#
# Disc length: 4797 seconds
#
# Revision: 0
# Processed by: cddbd v1.5.1PL0 Copyright (c) Steve Scherf et al.
# Submitted via: CDex 1.51
#
DISCID=2e12bb13
DTITLE=Various Artist - The Piano and the Song
DYEAR=2003
DGENRE=Rhythmic Soul
TTITLE0=Elton John Rocket Man
TTITLE1=Christofer Cross Arthurs Theme
TTITLE2=Chicago Hard Habit to Break
TTITLE3=Bruce Hornsby and the Range The Way it is
TTITLE4=Elvis Costello She
TTITLE5=Simply Red  If you don´t know me by now
TTITLE6=Lighthouse Family High
TTITLE7=Lionel Richie Hello
TTITLE8=Nilsson Without You
TTITLE9=Tears for Fears I Believe
TTITLE10=Cat Stevens Wild World
TTITLE11=Rod Stewart  Handbags and Gladrags
TTITLE12=Joe Cocker Delta Lady
TTITLE13=Daryl Hall and John Oates Kiss on my List
TTITLE14=Marvin Gaye How sweet it is
TTITLE15=Stevie Wonder For once in my life
TTITLE16=Supertramp Goodbye Stranger
TTITLE17=Dire Straits Private Investigations
TTITLE18=Coldplay Everything´s not Lost
EXTD=YEAR: 2003
EXTT0=
EXTT1=
EXTT2=
EXTT3=
EXTT4=
EXTT5=
EXTT6=
EXTT7=
EXTT8=
EXTT9=
EXTT10=
EXTT11=
EXTT12=
EXTT13=
EXTT14=
EXTT15=
EXTT16=
EXTT17=
EXTT18=
PLAYORDER=
